<svg xmlns="http://www.w3.org/2000/svg" viewBox="0 0 120 120" role="img" aria-labelledby="title"><title id="title">SelvaCore Marca</title><defs><linearGradient id="grad" x1="15%" x2="85%" y1="20%" y2="80%"><stop offset="0%" stop-color="#2d8752" /><stop offset="100%" stop-color="#b68039" /></linearGradient></defs><rect width="120" height="120" rx="28" fill="#101b11" /><path fill="url(#grad)" d="M32 86c3.1-6.6 7.8-11.8 14.3-15.7 6.5-3.9 15.1-6.4 25.9-7.7-4.3-3-7.3-5.7-8.9-8.1-1.7-2.6-2.5-5.6-2.5-8.9 0-6.8 2.6-12.5 7.6-17s11.6-6.8 19.4-6.8c8.2 0 14.9 2.3 19.9 6.6 5 4.4 7.5 10.1 7.5 17.3 0 6.7-2.2 12.2-6.8 16.6-4.5 4.3-10.6 7.1-18.1 8.3l12.1 12c4.1 4 7.2 7.7 9.4 11.2H80.7l-8.3-8.9c-5.6.7-11.3 1-17 1-4.9 0-9.3-.3-13-.9l-7.2 8.8H32Z" /></svg>