<svg xmlns="http://www.w3.org/2000/svg" viewBox="0 0 96 96" role="img" aria-labelledby="title"><title id="title">SelvaCore Logomarca</title><defs><linearGradient id="g" x1="12%" x2="88%" y1="18%" y2="82%"><stop offset="0%" stop-color="#2d8752" /><stop offset="100%" stop-color="#b68039" /></linearGradient></defs><rect width="96" height="96" rx="20" fill="#101b11" /><path fill="url(#g)" d="M21 68.5c2.2-4.6 5.7-8.3 10.4-11.1 4.6-2.8 10.7-4.7 18.2-5.8-3-2.2-5.1-4.3-6.3-6.1-1.2-1.9-1.8-4-1.8-6.4 0-4.9 1.8-9 5.4-12.2 3.6-3.2 8.2-4.8 13.7-4.8 5.8 0 10.5 1.6 14 4.7 3.5 3.1 5.3 7.1 5.3 12.1 0 4.7-1.6 8.6-4.7 11.6-3.1 3-7.4 5-12.8 5.9l8.5 8.4c2.9 2.8 5.1 5.5 6.6 8.1H60.5l-5.9-6.4c-4 .5-7.9.7-11.8.7-3.4 0-6.4-.2-9.1-.7l-5 6.4H21Z" /></svg>